<svg 
  xmlns="http://www.w3.org/2000/svg" 
  width="18" 
  height="21.5" 
  viewBox="0 0 18 21.5">
  <g 
    id="Group_31" 
    data-name="Group 31" 
    transform="translate(-59.5 -818.375)"
  >
    <path 
      id="Icon_fluent-apps-list-detail" 
      data-name="Icon fluent-apps-list-detail" 
      d="M5.287,7.2A1.687,1.687,0,0,0,3.6,8.887v2.25a1.687,1.687,0,0,0,1.688,1.688h2.25a1.688,1.688,0,0,0,1.688-1.687V8.887A1.688,1.688,0,0,0,7.537,7.2ZM4.725,8.887a.562.562,0,0,1,.563-.562h2.25a.562.562,0,0,1,.563.562v2.25a.562.562,0,0,1-.562.562H5.287a.562.562,0,0,1-.562-.562Zm7.313-.562a.563.563,0,0,0,0,1.125h9a.563.563,0,1,0,0-1.125Zm0,2.25a.563.563,0,0,0,0,1.125h6.75a.562.562,0,1,0,0-1.125h-6.75Zm-6.75,4.5A1.688,1.688,0,0,0,3.6,16.763v2.25A1.688,1.688,0,0,0,5.287,20.7h2.25a1.688,1.688,0,0,0,1.688-1.687v-2.25a1.688,1.688,0,0,0-1.688-1.688Zm-.562,1.688a.562.562,0,0,1,.563-.562h2.25a.563.563,0,0,1,.563.563v2.25a.562.562,0,0,1-.563.563H5.287a.562.562,0,0,1-.562-.562Zm7.313-.563a.562.562,0,1,0,0,1.125h9a.562.562,0,1,0,0-1.125Zm0,2.25a.562.562,0,1,0,0,1.125h6.75a.562.562,0,1,0,0-1.125h-6.75Z" 
      transform="translate(55.9 811.175)" 
      fill="#f6f6f6"
    />
    <path 
      id="Icon_fluent-apps-list-detail-2" 
      data-name="Icon fluent-apps-list-detail" 
      d="M5.287,15.075A1.688,1.688,0,0,0,3.6,16.763v2.25A1.688,1.688,0,0,0,5.287,20.7h2.25a1.688,1.688,0,0,0,1.688-1.687v-2.25a1.688,1.688,0,0,0-1.688-1.688Zm-.562,1.688a.562.562,0,0,1,.563-.562h2.25a.563.563,0,0,1,.563.563v2.25a.562.562,0,0,1-.563.563H5.287a.562.562,0,0,1-.562-.562Zm7.313-.563a.562.562,0,1,0,0,1.125h9a.562.562,0,1,0,0-1.125Zm0,2.25a.562.562,0,1,0,0,1.125h6.75a.562.562,0,1,0,0-1.125h-6.75Z" 
      transform="translate(55.9 819.175)" 
      fill="#f6f6f6"
    />
  </g>
</svg>
