<svg xmlns="http://www.w3.org/2000/svg" width="27" height="27" viewBox="0 0 27 27">
  <g id="Group_10" data-name="Group 10" transform="translate(-1208.443 -220)">
    <g id="Icon_clarity-settings-solid" data-name="Icon clarity-settings-solid" transform="translate(1208.443 220)">
      <path id="Path_21" data-name="Path 21" d="M27.263,13.434l-2.749-.82a9.554,9.554,0,0,0-.78-1.911L25.08,8.184a.5.5,0,0,0-.09-.591L23.028,5.625a.5.5,0,0,0-.591-.09l-2.5,1.337A9.539,9.539,0,0,0,18,6.051l-.821-2.715A.5.5,0,0,0,16.692,3H13.918a.5.5,0,0,0-.476.353L12.622,6.06a9.547,9.547,0,0,0-1.953.82L8.206,5.551a.5.5,0,0,0-.591.09L5.621,7.585a.5.5,0,0,0-.09.591l1.33,2.461a9.537,9.537,0,0,0-.821,1.944l-2.717.82a.5.5,0,0,0-.353.476V16.65a.5.5,0,0,0,.353.476l2.733.82a9.529,9.529,0,0,0,.821,1.911L5.531,22.433a.5.5,0,0,0,.09.591l1.962,1.961a.5.5,0,0,0,.591.09l2.536-1.353a9.564,9.564,0,0,0,1.888.771l.821,2.764a.5.5,0,0,0,.476.353h2.774a.5.5,0,0,0,.476-.353l.821-2.773a9.547,9.547,0,0,0,1.871-.771l2.552,1.362a.5.5,0,0,0,.591-.09l1.962-1.961a.5.5,0,0,0,.09-.591L23.668,19.89a9.538,9.538,0,0,0,.78-1.878l2.766-.82a.5.5,0,0,0,.353-.476v-2.8a.5.5,0,0,0-.3-.484ZM15.305,19.816A4.512,4.512,0,1,1,19.819,15.3,4.513,4.513,0,0,1,15.305,19.816Z" transform="translate(-1.786 -1.804)" fill="#ef6d58"/>
      <path id="Path_22" data-name="Path 22" d="M0,0H27V27H0Z" fill="none"/>
    </g>
  </g>
</svg>
