<svg xmlns="http://www.w3.org/2000/svg" width="8.808" height="14.052" viewBox="0 0 8.808 14.052"><defs><style>.a{fill:#ef6d58;}.b{fill:#1c1d2a;}</style></defs><g transform="translate(-1209.871 -220)"><path class="a" d="M29.773,17.626l-.84-.84-.84.84L24.529,21.19l1.68,1.68,2.724-2.724,2.724,2.724,1.68-1.68-3.564-3.564Zm-3.564,7.128,2.724,2.724,2.724-2.724,1.68,1.68L29.773,30l-.84.84-.84-.84-3.564-3.564,1.68-1.68Z" transform="translate(1185.342 203.214)"/><path class="b" d="M28.933,17.069,24.812,21.19l1.4,1.4,2.724-2.724,2.724,2.724,1.4-1.4-4.121-4.121m2.724,7.968-2.724,2.724-2.724-2.724-1.4,1.4,4.121,4.121,4.121-4.121-1.4-1.4m-2.724-8.251,4.4,4.4-1.68,1.68-2.724-2.724L26.209,22.87l-1.68-1.68Zm-2.724,7.968,2.724,2.724,2.724-2.724,1.68,1.68-4.4,4.4-4.4-4.4Z" transform="translate(1185.342 203.214)"/></g></svg>